<svg width="93" height="31" viewBox="0 0 93 31" fill="none" xmlns="http://www.w3.org/2000/svg">
<path d="M4.23589 11.4764C5.8416 9.97585 6.9656 9.7576 7.8755 9.7576C10.1235 9.7576 11.7292 11.8037 11.7292 15.8142C11.7292 19.9883 9.85588 21.6797 7.76846 21.6797C6.64446 21.6797 5.44018 21.216 4.23589 20.0428V11.4764ZM4.18237 5.20154L4.26265 0.94558L3.88799 0.727325L0 1.98229V2.88259L1.82733 3.12812V16.5508C1.82733 17.9421 1.80057 20.0428 1.7738 21.5706L0.133809 21.898V22.8256L3.94151 23.1257L4.18237 21.0795C5.4937 22.7437 6.9656 23.2075 8.30369 23.2075C11.8363 23.2075 14.2983 20.0974 14.2983 15.5959C14.2983 10.9853 11.863 8.2571 8.70512 8.2571C7.15293 8.2571 5.57398 8.93915 4.18237 10.4942V5.20154Z" fill="#FFF6E9"/>
<path d="M19.4867 14.4773C19.7811 10.9307 21.6812 9.40294 23.4743 9.40294C25.3743 9.40294 26.7124 11.0126 26.7124 12.8677C26.7124 13.8499 26.4181 14.5319 25.1335 14.5319L19.4867 14.4773ZM28.8801 15.6232C29.014 15.214 29.0942 14.641 29.0942 13.959C29.0942 10.4396 26.766 8.2571 23.6081 8.2571C19.9952 8.2571 16.8908 11.2308 16.8908 15.8414C16.8908 20.5066 19.567 23.2075 23.501 23.2075C26.0969 23.2075 27.9702 21.898 29.0407 19.7973L28.452 19.3881C27.4082 20.6703 26.2575 21.5433 24.3306 21.5433C21.4671 21.5433 19.5135 19.5518 19.46 15.5959L28.8801 15.6232Z" fill="#FFF6E9"/>
<path d="M45.522 8.66633H40.403V9.59391L42.4979 9.89401L38.8048 20.5066L34.9511 9.86673L36.5232 9.59391V8.66633H30.674V9.59391L32.1946 9.81216L37.6541 23.6986L37.5203 24.026C36.8512 25.8266 35.9948 27.4362 34.6835 28.4729L34.4694 28.2547C33.6933 27.518 33.1129 26.7561 32.2833 26.7561C31.4269 26.7561 30.4551 27.2725 30.4551 28.3911C30.4551 29.5096 31.6862 30.2735 33.0778 30.2735C35.2187 30.2735 37.0653 28.2547 38.9654 23.1257L43.8896 9.86673L45.522 9.59391V8.66633Z" fill="#FFF6E9"/>
<path d="M53.205 23.2075C56.6305 23.2075 59.949 20.7249 59.949 15.7869C59.949 10.8216 56.6037 8.2571 53.205 8.2571C49.7795 8.2571 46.4878 10.8489 46.4878 15.7869C46.4878 20.6976 49.7527 23.2075 53.205 23.2075ZM53.205 22.0617C50.6358 22.0617 49.1639 19.9064 49.1639 15.7869C49.1639 11.64 50.6358 9.40294 53.205 9.40294C55.7474 9.40294 57.246 11.64 57.246 15.7869C57.246 19.9064 55.7474 22.0617 53.205 22.0617Z" fill="#FFF6E9"/>
<path d="M75.5356 21.5706C75.5088 20.0701 75.4821 17.9967 75.4821 16.5508V13.6862C75.4821 9.83945 74.2242 8.2571 71.7354 8.2571C69.9156 8.2571 67.962 9.32109 66.4633 11.0126L66.2225 8.5572L65.821 8.28438L62.2542 9.92129V10.8216L64.028 11.0671C64.0815 12.2675 64.1083 13.3042 64.1083 14.9957V16.5508C64.1083 17.9421 64.0815 20.0428 64.0547 21.5706L62.4415 21.898V22.8256H68.631V21.898L66.5971 21.5706C66.5704 20.0428 66.5436 17.9421 66.5436 16.5508V12.1311C68.069 10.7125 69.3268 10.1395 70.6382 10.1395C72.3509 10.1395 73.0735 11.0671 73.0735 13.768V16.5508C73.0735 17.9967 73.0467 20.0701 73.02 21.5706L70.8523 21.898V22.8256H76.6259V21.898L75.5356 21.5706Z" fill="#FFF6E9"/>
<path d="M88.3467 19.9883C87.2227 21.2705 86.286 21.6797 85.0014 21.6797C82.6196 21.6797 80.8533 19.9337 80.8533 15.7869C80.8533 11.5036 82.7802 9.7576 85.0282 9.7576C86.0184 9.7576 87.0353 10.1395 88.3467 11.3399V19.9883ZM90.7552 21.6252V5.20154L90.8355 0.94558L90.4608 0.727325L86.4926 1.98229V2.88259L88.4002 3.10084V10.1941C87.1691 8.72089 85.9113 8.2571 84.5465 8.2571C80.9336 8.2571 78.2842 11.2308 78.2842 15.8687C78.2842 20.2338 80.7195 23.2075 84.3056 23.2075C86.0986 23.2075 87.3832 22.4164 88.4269 21.0795L88.5875 23.1257L92.1667 22.8256V21.898L90.7552 21.6252Z" fill="#FFF6E9"/>
</svg>
